<svg width="101" height="35" viewBox="0 0 101 35" fill="none" xmlns="http://www.w3.org/2000/svg">
<g clip-path="url(#clip0_17765_368)" filter="url(#filter0_d_17765_368)">
<path d="M4 10.4163V12.4995H5.98768V10.4163H4Z" fill="#2D3440"/>
<path d="M13.4185 3.66311C12.1568 3.66311 11.137 4.236 10.4975 5.06932H10.4284V0H8.78638V12.4997H10.4284V8.21161C10.4284 6.4929 11.5 5.26029 13.0729 5.26029C14.5593 5.26029 15.4235 6.37138 15.4235 7.86439V12.4997H17.0655V7.56926C17.0655 5.19084 15.5963 3.66311 13.4185 3.66311Z" fill="#2D3440"/>
<path d="M25.5252 3.90628H21.6363V0.868164H19.9943V3.90628H18.4387V5.50347H19.9943V10.3471C19.9943 11.7359 20.7721 12.4998 22.1721 12.4998H25.5252V10.8853H22.5005C21.9474 10.8853 21.6363 10.5728 21.6363 10.0346V5.50347H25.5252V3.90628Z" fill="#2D3440"/>
<path d="M37.2548 3.68042C35.9411 3.68042 34.9388 4.32276 34.3856 5.34705H34.3338C33.8325 4.34014 32.8992 3.68042 31.6202 3.68042C30.4795 3.68042 29.6152 4.28804 29.0967 5.13873H29.0275V3.90612H27.4547V12.4996H29.0967V8.09004C29.0967 6.47549 29.9435 5.29497 31.2227 5.26025C32.4325 5.22553 33.1412 6.09356 33.1412 7.3956V12.4996H34.7832V7.95115C34.7832 6.02412 35.9239 5.26025 36.9091 5.26025C38.1017 5.26025 38.8105 6.09356 38.8105 7.3956V12.4996H40.4523V7.222C40.4523 5.13873 39.277 3.68042 37.2548 3.68042Z" fill="#2D3440"/>
<path d="M42.6776 10.2775C42.6776 11.6837 43.4727 12.4997 44.9418 12.4997H46.5665V10.9025H45.1837C44.6306 10.9025 44.3194 10.59 44.3194 10.0518V0H42.6776V10.2775Z" fill="#2D3440"/>
<path d="M27.3752 15.9364H27.306C26.6653 15.0734 25.6266 14.4694 24.2413 14.4521C21.6959 14.4176 19.8778 16.2988 19.8778 18.9566C19.8778 21.6318 21.7305 23.513 24.2239 23.4785C25.6437 23.4611 26.6653 22.8226 27.306 21.9078H27.3752V23.2367H29.003V14.6937H27.3752V15.9364ZM24.4663 21.8907C22.6656 21.8907 21.5228 20.5789 21.5228 18.9566C21.5228 17.3343 22.6656 16.0227 24.4663 16.0227C26.2152 16.0227 27.3581 17.3343 27.3581 18.9566C27.3581 20.5618 26.2152 21.8907 24.4663 21.8907Z" fill="#2D3440"/>
<path d="M39.752 17.8003C39.3537 15.8673 37.6395 14.4521 35.3886 14.4521C32.6701 14.4521 30.8521 16.4369 30.8521 18.9567C30.8521 21.4764 32.6701 23.4785 35.3886 23.4785C37.6395 23.4785 39.3537 22.0287 39.752 20.0785H38.0378C37.6915 21.1658 36.6699 21.9078 35.4059 21.9078C33.6397 21.9078 32.4968 20.5789 32.4968 18.9567C32.4968 17.3343 33.6397 16.0227 35.4059 16.0227C36.7218 16.0227 37.6915 16.7993 38.0378 17.8003H39.752Z" fill="#2D3440"/>
<path d="M48.5459 15.9364H48.4766C47.836 15.0734 46.797 14.4694 45.4117 14.4521C42.8664 14.4176 41.0483 16.2988 41.0483 18.9566C41.0483 21.6318 42.9011 23.513 45.3944 23.4785C46.8143 23.4611 47.836 22.8226 48.4766 21.9078H48.5459V23.2367H50.1735V14.6937H48.5459V15.9364ZM45.6369 21.8907C43.836 21.8907 42.6933 20.5789 42.6933 18.9566C42.6933 17.3343 43.836 16.0227 45.6369 16.0227C47.3858 16.0227 48.5285 17.3343 48.5285 18.9566C48.5285 20.5618 47.3858 21.8907 45.6369 21.8907Z" fill="#2D3440"/>
<path d="M59.5201 16.0227H59.4509C58.8102 15.1079 57.7365 14.4694 56.3686 14.4521C53.8754 14.4176 52.0226 16.2988 52.0226 18.9739C52.0226 21.6317 53.8407 23.513 56.386 23.4785C57.7365 23.4611 58.8102 22.8571 59.4336 21.9942H59.5201V23.2367H61.1477V10.8105H59.5201V16.0227ZM56.6112 21.9078C54.8103 21.9078 53.6675 20.5963 53.6675 18.9739C53.6675 17.3516 54.8103 16.0399 56.6112 16.0399C58.3601 16.0399 59.5028 17.3688 59.5028 18.9739C59.5028 20.5963 58.3601 21.9078 56.6112 21.9078Z" fill="#2D3440"/>
<path d="M67.3449 14.4521C64.713 14.4521 62.9121 16.4714 62.9121 18.9739C62.9121 21.4074 64.6091 23.4785 67.3794 23.4785C69.388 23.4785 70.9984 22.3912 71.5699 20.5789H69.8555C69.4748 21.3902 68.557 21.9078 67.4488 21.9078C65.8905 21.9078 64.7822 20.8724 64.661 19.5435H71.743C71.968 16.6958 70.1846 14.4521 67.3449 14.4521ZM67.3102 16.0227C68.6781 16.0227 69.6998 16.8684 69.9595 18.0937H64.6957C64.938 16.8856 65.9597 16.0227 67.3102 16.0227Z" fill="#2D3440"/>
<path d="M83.4126 14.4695C82.0968 14.4695 81.0925 15.108 80.5384 16.1263H80.4863C79.9843 15.1253 79.0492 14.4695 77.7679 14.4695C76.6252 14.4695 75.7593 15.0735 75.2399 15.9192H75.1707V14.6938H73.595V23.2368H75.2399V18.8532C75.2399 17.2481 76.0884 16.0745 77.3698 16.04C78.5817 16.0055 79.2918 16.8684 79.2918 18.1628V23.2368H80.9367V18.7151C80.9367 16.7994 82.0794 16.04 83.0664 16.04C84.2611 16.04 84.971 16.8684 84.971 18.1628V23.2368H86.616V17.9902C86.616 15.9192 85.4385 14.4695 83.4126 14.4695Z" fill="#2D3440"/>
<path d="M92.5048 21.8732L89.5611 14.6936H87.743L91.6563 24.0479L91.6391 24.0824C91.362 24.7899 91.0503 25.0488 90.2884 25.0488H88.2626V26.6883H90.2884C91.7775 26.6883 92.574 26.0153 93.1281 24.5655L96.9029 14.6936H95.2232L92.5048 21.8732Z" fill="#2D3440"/>
</g>
<defs>
<filter id="filter0_d_17765_368" x="0" y="0" width="101" height="34.7107" filterUnits="userSpaceOnUse" color-interpolation-filters="sRGB">
<feFlood flood-opacity="0" result="BackgroundImageFix"/>
<feColorMatrix in="SourceAlpha" type="matrix" values="0 0 0 0 0 0 0 0 0 0 0 0 0 0 0 0 0 0 127 0" result="hardAlpha"/>
<feOffset dy="4"/>
<feGaussianBlur stdDeviation="2"/>
<feComposite in2="hardAlpha" operator="out"/>
<feColorMatrix type="matrix" values="0 0 0 0 0 0 0 0 0 0 0 0 0 0 0 0 0 0 0.25 0"/>
<feBlend mode="normal" in2="BackgroundImageFix" result="effect1_dropShadow_17765_368"/>
<feBlend mode="normal" in="SourceGraphic" in2="effect1_dropShadow_17765_368" result="shape"/>
</filter>
<clipPath id="clip0_17765_368">
<rect width="93" height="26.7107" fill="white" transform="translate(4)"/>
</clipPath>
</defs>
</svg>
